<svg width="68" height="72" viewBox="0 0 68 72" fill="none" xmlns="http://www.w3.org/2000/svg">
<g filter="url(#filter0_d_297080_1868)">
<path d="M63.5463 44.1952L46.6599 27.1851L48.534 17.9541C49.0176 18.1429 49.5318 18.2416 50.0508 18.2453H50.0636C52.4482 18.2735 54.404 16.3633 54.4323 13.9788C54.4606 11.5943 52.5503 9.6384 50.1658 9.61013C47.7812 9.582 45.8254 11.4921 45.7971 13.8767C45.7911 14.3869 45.8755 14.8941 46.0466 15.3749L36.1266 16.5856L19.9452 0.32C19.7467 0.117467 19.4757 0.00226667 19.1921 0C18.9121 0.00146667 18.644 0.112933 18.4455 0.3104L15.4204 3.3184C15.004 3.73493 15.004 4.41013 15.4204 4.82667L17.0481 6.47787C10.742 18.0737 12.7903 32.4335 22.0871 41.8037C22.1724 41.8853 22.2713 41.9513 22.3793 41.9989C22.3121 42.3599 22.2771 42.7261 22.2748 43.0933V55.4667H9.47481C6.53081 55.4701 4.14495 57.856 4.14148 60.8V62.9333C4.14148 63.5224 4.61908 64 5.20815 64H54.2748C54.8639 64 55.3415 63.5224 55.3415 62.9333V60.8C55.338 57.856 52.9522 55.4701 50.0082 55.4667H37.2082V49.9829C39.2134 50.4035 41.2564 50.6179 43.3052 50.6229C48.2215 50.6176 53.0595 49.392 57.3852 47.056L59.0215 48.7019C59.22 48.9044 59.491 49.0196 59.7746 49.0219C60.0546 49.0204 60.3227 48.9089 60.5212 48.7115L63.5463 45.7035C63.9627 45.2869 63.9627 44.6117 63.5463 44.1952ZM48.5596 12.4661C49.395 11.6352 50.7458 11.6389 51.5766 12.4743C52.4075 13.3096 52.4038 14.6604 51.5684 15.4912C51.1686 15.8889 50.6275 16.1121 50.0635 16.112H50.0571C48.879 16.1059 47.9287 15.1459 47.9348 13.9676C47.9378 13.4036 48.1639 12.8639 48.5638 12.4661H48.5596ZM46.0487 19.4752L44.8519 25.3664L42.5009 23.0016L46.0487 19.4752ZM44.837 17.6715L40.997 21.4891L38.0263 18.5024L44.837 17.6715ZM50.0082 57.6C51.7755 57.6 53.2082 59.0327 53.2082 60.8V61.8667H6.27481V60.8C6.27481 59.0327 7.70748 57.6 9.47481 57.6H50.0082ZM35.0748 53.3333V55.4667H24.4081V53.3333H35.0748ZM24.4081 51.2V43.0933C24.4081 40.5056 26.8007 38.4 29.7415 38.4C32.6823 38.4 35.0748 40.5056 35.0748 43.0933V51.2H24.4081ZM37.2082 47.808V43.0933C37.2082 39.3291 33.8588 36.2667 29.7415 36.2667C27.0793 36.2259 24.59 37.5809 23.1793 39.8389C15.0639 31.2913 13.2364 18.5485 18.6221 8.06467L55.8258 45.4816C50.081 48.404 43.4955 49.2268 37.2082 47.808ZM59.7863 46.4405L58.2834 44.9291L19.1815 5.59147L17.6721 4.07893L19.1815 2.57493L35.0513 18.5344C35.0588 18.5344 35.0631 18.5483 35.0706 18.5536L61.2999 44.9365L59.7863 46.4405Z" fill="#2E2F42"/>
<path d="M29.7511 40.5333H29.7415C27.9742 40.5306 26.5394 41.9612 26.5367 43.7285C26.534 45.4958 27.9646 46.9306 29.7319 46.9333H29.7415C31.5088 46.936 32.9436 45.5054 32.9463 43.7381C32.9489 41.9708 31.5184 40.536 29.7511 40.5333ZM30.4978 44.4896C30.297 44.6893 30.0248 44.801 29.7415 44.8C29.1524 44.7969 28.6774 44.3169 28.6804 43.7278C28.6819 43.4458 28.795 43.176 28.9948 42.977C29.1934 42.7796 29.4615 42.6681 29.7415 42.6666C30.3306 42.6697 30.8056 43.1497 30.8026 43.7388C30.8011 44.0208 30.688 44.2906 30.4882 44.4896H30.4978Z" fill="#4D5AE5"/>
</g>
<defs>
<filter id="filter0_d_297080_1868" x="-2" y="0" width="72" height="72" filterUnits="userSpaceOnUse" color-interpolation-filters="sRGB">
<feFlood flood-opacity="0" result="BackgroundImageFix"/>
<feColorMatrix in="SourceAlpha" type="matrix" values="0 0 0 0 0 0 0 0 0 0 0 0 0 0 0 0 0 0 127 0" result="hardAlpha"/>
<feOffset dy="4"/>
<feGaussianBlur stdDeviation="2"/>
<feComposite in2="hardAlpha" operator="out"/>
<feColorMatrix type="matrix" values="0 0 0 0 0 0 0 0 0 0 0 0 0 0 0 0 0 0 0.25 0"/>
<feBlend mode="normal" in2="BackgroundImageFix" result="effect1_dropShadow_297080_1868"/>
<feBlend mode="normal" in="SourceGraphic" in2="effect1_dropShadow_297080_1868" result="shape"/>
</filter>
</defs>
</svg>
